<svg xmlns="http://www.w3.org/2000/svg" width="96" height="64" viewBox="0 0 96 64"><circle fill="#CC181E" cx="48.2" cy="24" r="17.5"/><path fill="#FFF" d="M56.1 24l-11.7-6.7v13.4"/><path fill="#ECECEC" d="M94 1c.6 0 1 .4 1 1v60c0 .6-.4 1-1 1H2c-.6 0-1-.4-1-1V2c0-.6.4-1 1-1h92m0-1H2C.9 0 0 .9 0 2v60c0 1.1.9 2 2 2h92c1.1 0 2-.9 2-2V2c0-1.1-.9-2-2-2z"/><path d="M37.3 54.5l1.8-5.6h1.4L37.9 56h-1.2l-2.5-7.1h1.4l1.7 5.6zm5.2 1.5h-1.2v-7.1h1.2V56zm1.5 0v-7.1h2.1c.6 0 1.2.1 1.7.4.5.3.9.7 1.1 1.2s.4 1.1.4 1.8v.4c0 .7-.1 1.3-.4 1.8s-.7.9-1.1 1.2c-.5.3-1.1.4-1.7.4H44zm1.3-6.1V55h.8c.6 0 1.1-.2 1.5-.6.3-.4.5-1 .5-1.7v-.4c0-.8-.2-1.4-.5-1.8s-.8-.6-1.5-.6h-.8zm9.4 2.9h-2.9V55h3.4v1h-4.6v-7.1h4.6v1h-3.4v2h2.9v.9zm7.2-.2c0 .7-.1 1.3-.4 1.8-.2.5-.6.9-1 1.2-.4.3-1 .4-1.5.4-.6 0-1.1-.1-1.5-.4-.5-.3-.8-.7-1-1.2-.4-.4-.5-1-.5-1.7v-.4c0-.7.1-1.3.4-1.8.2-.5.6-.9 1-1.2.4-.3 1-.4 1.5-.4s1.1.1 1.5.4c.4.3.8.7 1 1.2.2.5.4 1.1.4 1.8v.3zm-1.2-.3c0-.8-.1-1.4-.4-1.8s-.7-.6-1.3-.6c-.5 0-1 .2-1.3.6-.3.4-.5 1-.5 1.8v.4c0 .8.2 1.4.5 1.8.3.4.7.6 1.3.6.5 0 1-.2 1.3-.6.3-.4.4-1 .4-1.8v-.4z" fill="#787878"/></svg>